<svg id="Layer_1" data-name="Layer 1" xmlns="http://www.w3.org/2000/svg" width="21.46" height="20.67" viewBox="0 0 21.46 20.67"><defs><style>.cls-1{fill:#716c5c;}</style></defs><title>icon-share</title><path class="cls-1" d="M1.06,7.59a3.5,3.5,0,0,1,2.58-1,3.54,3.54,0,0,1,2.59,1,2.31,2.31,0,0,1,.16.19l7.82-4s0-.08,0-0.12A3.51,3.51,0,0,1,15.24,1a3.49,3.49,0,0,1,2.57-1,3.53,3.53,0,0,1,2.59,1,3.54,3.54,0,0,1,1.06,2.59,3.5,3.5,0,0,1-1.06,2.58,3.5,3.5,0,0,1-2.59,1.06,3.46,3.46,0,0,1-2.57-1.06l-0.1-.12-7.87,4h0l7.89,4.27a3.7,3.7,0,0,1,5.13,0,3.69,3.69,0,0,1,0,5.17,3.68,3.68,0,0,1-5.16,0A3.48,3.48,0,0,1,14.07,17c0-.12,0-0.23,0-0.35L6.42,12.53c-0.07.08-.12,0.16-0.19,0.23a3.5,3.5,0,0,1-2.59,1.06,3.46,3.46,0,0,1-2.58-1.06A3.48,3.48,0,0,1,0,10.18,3.52,3.52,0,0,1,1.06,7.59Z"/></svg>